<mxfile host="app.diagrams.net" agent="Mozilla/5.0 (Windows NT 10.0; Win64; x64) AppleWebKit/537.36 (KHTML, like Gecko) Chrome/131.0.0.0 Safari/537.36" version="25.0.1">
  <diagram name="Page-1" id="2YBvvXClWsGukQMizWep">
    <mxGraphModel dx="2443" dy="858" grid="1" gridSize="10" guides="1" tooltips="1" connect="1" arrows="1" fold="1" page="1" pageScale="1" pageWidth="850" pageHeight="1100" math="0" shadow="0">
      <root>
        <mxCell id="0" />
        <mxCell id="1" parent="0" />
        <mxCell id="aM9ryv3xv72pqoxQDRHE-5" value="Sistema" style="shape=umlLifeline;perimeter=lifelinePerimeter;whiteSpace=wrap;html=1;container=0;dropTarget=0;collapsible=0;recursiveResize=0;outlineConnect=0;portConstraint=eastwest;newEdgeStyle={&quot;edgeStyle&quot;:&quot;elbowEdgeStyle&quot;,&quot;elbow&quot;:&quot;vertical&quot;,&quot;curved&quot;:0,&quot;rounded&quot;:0};" parent="1" vertex="1">
          <mxGeometry x="220" y="20" width="100" height="540" as="geometry" />
        </mxCell>
        <mxCell id="aM9ryv3xv72pqoxQDRHE-6" value="" style="html=1;points=[];perimeter=orthogonalPerimeter;outlineConnect=0;targetShapes=umlLifeline;portConstraint=eastwest;newEdgeStyle={&quot;edgeStyle&quot;:&quot;elbowEdgeStyle&quot;,&quot;elbow&quot;:&quot;vertical&quot;,&quot;curved&quot;:0,&quot;rounded&quot;:0};" parent="aM9ryv3xv72pqoxQDRHE-5" vertex="1">
          <mxGeometry x="45" y="80" width="10" height="70" as="geometry" />
        </mxCell>
        <mxCell id="7P23fWCcZTtkgC-bO-uN-14" value="" style="html=1;points=[];perimeter=orthogonalPerimeter;outlineConnect=0;targetShapes=umlLifeline;portConstraint=eastwest;newEdgeStyle={&quot;edgeStyle&quot;:&quot;elbowEdgeStyle&quot;,&quot;elbow&quot;:&quot;vertical&quot;,&quot;curved&quot;:0,&quot;rounded&quot;:0};" parent="aM9ryv3xv72pqoxQDRHE-5" vertex="1">
          <mxGeometry x="45" y="210" width="10" height="50" as="geometry" />
        </mxCell>
        <mxCell id="7P23fWCcZTtkgC-bO-uN-26" value="" style="html=1;points=[];perimeter=orthogonalPerimeter;outlineConnect=0;targetShapes=umlLifeline;portConstraint=eastwest;newEdgeStyle={&quot;edgeStyle&quot;:&quot;elbowEdgeStyle&quot;,&quot;elbow&quot;:&quot;vertical&quot;,&quot;curved&quot;:0,&quot;rounded&quot;:0};" parent="aM9ryv3xv72pqoxQDRHE-5" vertex="1">
          <mxGeometry x="45" y="370" width="10" height="80" as="geometry" />
        </mxCell>
        <mxCell id="7P23fWCcZTtkgC-bO-uN-30" value="" style="html=1;points=[];perimeter=orthogonalPerimeter;outlineConnect=0;targetShapes=umlLifeline;portConstraint=eastwest;newEdgeStyle={&quot;edgeStyle&quot;:&quot;elbowEdgeStyle&quot;,&quot;elbow&quot;:&quot;vertical&quot;,&quot;curved&quot;:0,&quot;rounded&quot;:0};" parent="aM9ryv3xv72pqoxQDRHE-5" vertex="1">
          <mxGeometry x="45" y="460" width="10" height="60" as="geometry" />
        </mxCell>
        <mxCell id="aM9ryv3xv72pqoxQDRHE-8" value="6. Dados do produto" style="html=1;verticalAlign=bottom;endArrow=open;dashed=1;endSize=8;edgeStyle=elbowEdgeStyle;elbow=vertical;curved=0;rounded=0;" parent="1" edge="1">
          <mxGeometry relative="1" as="geometry">
            <mxPoint x="65.5" y="350" as="targetPoint" />
            <Array as="points">
              <mxPoint x="185.5" y="350" />
            </Array>
            <mxPoint x="265" y="350" as="sourcePoint" />
          </mxGeometry>
        </mxCell>
        <mxCell id="aM9ryv3xv72pqoxQDRHE-10" value="5. showProduto(id)" style="html=1;verticalAlign=bottom;endArrow=open;endSize=8;edgeStyle=elbowEdgeStyle;elbow=vertical;curved=0;rounded=0;" parent="1" edge="1">
          <mxGeometry relative="1" as="geometry">
            <mxPoint x="265" y="320" as="targetPoint" />
            <Array as="points">
              <mxPoint x="175.5" y="320" />
            </Array>
            <mxPoint x="65.5" y="320" as="sourcePoint" />
          </mxGeometry>
        </mxCell>
        <mxCell id="7P23fWCcZTtkgC-bO-uN-1" value="UsuÃ¡rio&lt;div&gt;&lt;br&gt;&lt;/div&gt;" style="shape=umlActor;verticalLabelPosition=bottom;verticalAlign=top;html=1;outlineConnect=0;" parent="1" vertex="1">
          <mxGeometry x="50" y="20" width="30" height="60" as="geometry" />
        </mxCell>
        <mxCell id="7P23fWCcZTtkgC-bO-uN-5" value="" style="endArrow=none;dashed=1;html=1;rounded=0;" parent="1" edge="1">
          <mxGeometry width="50" height="50" relative="1" as="geometry">
            <mxPoint x="65" y="90" as="sourcePoint" />
            <mxPoint x="65" y="560" as="targetPoint" />
          </mxGeometry>
        </mxCell>
        <mxCell id="7P23fWCcZTtkgC-bO-uN-9" value="" style="html=1;points=[];perimeter=orthogonalPerimeter;outlineConnect=0;targetShapes=umlLifeline;portConstraint=eastwest;newEdgeStyle={&quot;edgeStyle&quot;:&quot;elbowEdgeStyle&quot;,&quot;elbow&quot;:&quot;vertical&quot;,&quot;curved&quot;:0,&quot;rounded&quot;:0};" parent="1" vertex="1">
          <mxGeometry x="265" y="300" width="10" height="70" as="geometry" />
        </mxCell>
        <mxCell id="7P23fWCcZTtkgC-bO-uN-13" value="1. listProdutos()" style="html=1;verticalAlign=bottom;endArrow=open;endSize=8;edgeStyle=elbowEdgeStyle;elbow=vertical;curved=0;rounded=0;" parent="1" edge="1">
          <mxGeometry relative="1" as="geometry">
            <mxPoint x="265" y="130" as="targetPoint" />
            <Array as="points">
              <mxPoint x="175.5" y="130" />
            </Array>
            <mxPoint x="65.5" y="130" as="sourcePoint" />
          </mxGeometry>
        </mxCell>
        <mxCell id="aM9ryv3xv72pqoxQDRHE-9" value="2. Lista de produtos" style="html=1;verticalAlign=bottom;endArrow=open;edgeStyle=elbowEdgeStyle;elbow=vertical;curved=0;rounded=0;dashed=1;endFill=0;" parent="1" edge="1">
          <mxGeometry relative="1" as="geometry">
            <mxPoint x="265" y="160.20000000000005" as="sourcePoint" />
            <Array as="points">
              <mxPoint x="60" y="160" />
            </Array>
            <mxPoint x="70" y="160" as="targetPoint" />
          </mxGeometry>
        </mxCell>
        <mxCell id="7P23fWCcZTtkgC-bO-uN-24" value="3. createProduto()" style="html=1;verticalAlign=bottom;endArrow=open;endSize=8;edgeStyle=elbowEdgeStyle;elbow=vertical;curved=0;rounded=0;" parent="1" edge="1">
          <mxGeometry relative="1" as="geometry">
            <mxPoint x="265" y="240" as="targetPoint" />
            <Array as="points">
              <mxPoint x="175.5" y="240" />
            </Array>
            <mxPoint x="65.5" y="240" as="sourcePoint" />
          </mxGeometry>
        </mxCell>
        <mxCell id="7P23fWCcZTtkgC-bO-uN-25" value="4. Mensagem de sucesso" style="html=1;verticalAlign=bottom;endArrow=open;dashed=1;endSize=8;edgeStyle=elbowEdgeStyle;elbow=vertical;curved=0;rounded=0;" parent="1" edge="1">
          <mxGeometry relative="1" as="geometry">
            <mxPoint x="65.5" y="270" as="targetPoint" />
            <Array as="points">
              <mxPoint x="185.5" y="270" />
            </Array>
            <mxPoint x="265" y="270" as="sourcePoint" />
          </mxGeometry>
        </mxCell>
        <mxCell id="7P23fWCcZTtkgC-bO-uN-27" value="6. updateProduto(id)" style="html=1;verticalAlign=bottom;endArrow=open;endSize=8;edgeStyle=elbowEdgeStyle;elbow=vertical;curved=0;rounded=0;" parent="1" edge="1">
          <mxGeometry relative="1" as="geometry">
            <mxPoint x="265" y="410" as="targetPoint" />
            <Array as="points">
              <mxPoint x="175.5" y="410" />
            </Array>
            <mxPoint x="65.5" y="410" as="sourcePoint" />
          </mxGeometry>
        </mxCell>
        <mxCell id="7P23fWCcZTtkgC-bO-uN-28" value="7. Mensagem de sucesso" style="html=1;verticalAlign=bottom;endArrow=open;dashed=1;endSize=8;edgeStyle=elbowEdgeStyle;elbow=vertical;curved=0;rounded=0;" parent="1" edge="1">
          <mxGeometry relative="1" as="geometry">
            <mxPoint x="65.5" y="440" as="targetPoint" />
            <Array as="points">
              <mxPoint x="185.5" y="440" />
            </Array>
            <mxPoint x="265" y="440" as="sourcePoint" />
          </mxGeometry>
        </mxCell>
        <mxCell id="7P23fWCcZTtkgC-bO-uN-29" value="8. deleteProduto(id)" style="html=1;verticalAlign=bottom;endArrow=open;endSize=8;edgeStyle=elbowEdgeStyle;elbow=vertical;curved=0;rounded=0;" parent="1" edge="1">
          <mxGeometry relative="1" as="geometry">
            <mxPoint x="265" y="490" as="targetPoint" />
            <Array as="points">
              <mxPoint x="175.5" y="490" />
            </Array>
            <mxPoint x="65.5" y="490" as="sourcePoint" />
          </mxGeometry>
        </mxCell>
        <mxCell id="7P23fWCcZTtkgC-bO-uN-31" value="9.&amp;nbsp;Mensagem de sucesso" style="html=1;verticalAlign=bottom;endArrow=open;dashed=1;endSize=8;edgeStyle=elbowEdgeStyle;elbow=vertical;curved=0;rounded=0;" parent="1" edge="1">
          <mxGeometry relative="1" as="geometry">
            <mxPoint x="65.5" y="520" as="targetPoint" />
            <Array as="points">
              <mxPoint x="185.5" y="520" />
            </Array>
            <mxPoint x="265" y="520" as="sourcePoint" />
          </mxGeometry>
        </mxCell>
        <mxCell id="7P23fWCcZTtkgC-bO-uN-35" value="" style="swimlane;startSize=0;" parent="1" vertex="1">
          <mxGeometry y="180" width="310" height="370" as="geometry" />
        </mxCell>
        <mxCell id="7P23fWCcZTtkgC-bO-uN-36" value="alt" style="text;html=1;align=center;verticalAlign=middle;resizable=0;points=[];autosize=1;perimeterSpacing=1;fillColor=#f5f5f5;fontColor=#333333;strokeColor=#666666;" parent="7P23fWCcZTtkgC-bO-uN-35" vertex="1">
          <mxGeometry x="5" width="40" height="30" as="geometry" />
        </mxCell>
        <mxCell id="7P23fWCcZTtkgC-bO-uN-37" value="Criar&amp;nbsp;" style="text;html=1;align=center;verticalAlign=middle;resizable=0;points=[];autosize=1;strokeColor=none;fillColor=none;" parent="7P23fWCcZTtkgC-bO-uN-35" vertex="1">
          <mxGeometry y="40" width="50" height="30" as="geometry" />
        </mxCell>
        <mxCell id="7P23fWCcZTtkgC-bO-uN-40" value="" style="endArrow=none;html=1;rounded=0;exitX=-0.001;exitY=0.305;exitDx=0;exitDy=0;exitPerimeter=0;entryX=0.995;entryY=0.311;entryDx=0;entryDy=0;entryPerimeter=0;" parent="7P23fWCcZTtkgC-bO-uN-35" edge="1">
          <mxGeometry width="50" height="50" relative="1" as="geometry">
            <mxPoint x="1" y="200" as="sourcePoint" />
            <mxPoint x="309" y="202" as="targetPoint" />
          </mxGeometry>
        </mxCell>
        <mxCell id="7P23fWCcZTtkgC-bO-uN-41" value="" style="endArrow=none;html=1;rounded=0;exitX=-0.001;exitY=0.305;exitDx=0;exitDy=0;exitPerimeter=0;entryX=0.995;entryY=0.311;entryDx=0;entryDy=0;entryPerimeter=0;" parent="7P23fWCcZTtkgC-bO-uN-35" edge="1">
          <mxGeometry width="50" height="50" relative="1" as="geometry">
            <mxPoint y="280" as="sourcePoint" />
            <mxPoint x="308" y="282" as="targetPoint" />
          </mxGeometry>
        </mxCell>
        <mxCell id="7P23fWCcZTtkgC-bO-uN-42" value="Exibir" style="text;html=1;align=center;verticalAlign=middle;resizable=0;points=[];autosize=1;strokeColor=none;fillColor=none;" parent="7P23fWCcZTtkgC-bO-uN-35" vertex="1">
          <mxGeometry y="120" width="50" height="30" as="geometry" />
        </mxCell>
        <mxCell id="7P23fWCcZTtkgC-bO-uN-43" value="Atualizar" style="text;html=1;align=center;verticalAlign=middle;resizable=0;points=[];autosize=1;strokeColor=none;fillColor=none;" parent="7P23fWCcZTtkgC-bO-uN-35" vertex="1">
          <mxGeometry x="-6" y="215" width="70" height="30" as="geometry" />
        </mxCell>
        <mxCell id="7P23fWCcZTtkgC-bO-uN-44" value="deletar" style="text;html=1;align=center;verticalAlign=middle;resizable=0;points=[];autosize=1;strokeColor=none;fillColor=none;" parent="7P23fWCcZTtkgC-bO-uN-35" vertex="1">
          <mxGeometry x="1" y="292" width="60" height="30" as="geometry" />
        </mxCell>
        <mxCell id="7P23fWCcZTtkgC-bO-uN-38" value="" style="endArrow=none;html=1;rounded=0;exitX=-0.001;exitY=0.305;exitDx=0;exitDy=0;exitPerimeter=0;entryX=0.995;entryY=0.311;entryDx=0;entryDy=0;entryPerimeter=0;" parent="1" source="7P23fWCcZTtkgC-bO-uN-35" target="7P23fWCcZTtkgC-bO-uN-35" edge="1">
          <mxGeometry width="50" height="50" relative="1" as="geometry">
            <mxPoint x="5" y="310" as="sourcePoint" />
            <mxPoint x="55" y="260" as="targetPoint" />
          </mxGeometry>
        </mxCell>
        <mxCell id="7P23fWCcZTtkgC-bO-uN-45" value="Sistema" style="shape=umlLifeline;perimeter=lifelinePerimeter;whiteSpace=wrap;html=1;container=0;dropTarget=0;collapsible=0;recursiveResize=0;outlineConnect=0;portConstraint=eastwest;newEdgeStyle={&quot;edgeStyle&quot;:&quot;elbowEdgeStyle&quot;,&quot;elbow&quot;:&quot;vertical&quot;,&quot;curved&quot;:0,&quot;rounded&quot;:0};" parent="1" vertex="1">
          <mxGeometry x="620" y="18" width="100" height="472" as="geometry" />
        </mxCell>
        <mxCell id="7P23fWCcZTtkgC-bO-uN-46" value="" style="html=1;points=[];perimeter=orthogonalPerimeter;outlineConnect=0;targetShapes=umlLifeline;portConstraint=eastwest;newEdgeStyle={&quot;edgeStyle&quot;:&quot;elbowEdgeStyle&quot;,&quot;elbow&quot;:&quot;vertical&quot;,&quot;curved&quot;:0,&quot;rounded&quot;:0};" parent="7P23fWCcZTtkgC-bO-uN-45" vertex="1">
          <mxGeometry x="45" y="80" width="10" height="70" as="geometry" />
        </mxCell>
        <mxCell id="7P23fWCcZTtkgC-bO-uN-47" value="" style="html=1;points=[];perimeter=orthogonalPerimeter;outlineConnect=0;targetShapes=umlLifeline;portConstraint=eastwest;newEdgeStyle={&quot;edgeStyle&quot;:&quot;elbowEdgeStyle&quot;,&quot;elbow&quot;:&quot;vertical&quot;,&quot;curved&quot;:0,&quot;rounded&quot;:0};" parent="7P23fWCcZTtkgC-bO-uN-45" vertex="1">
          <mxGeometry x="45" y="210" width="10" height="40" as="geometry" />
        </mxCell>
        <mxCell id="7P23fWCcZTtkgC-bO-uN-48" value="" style="html=1;points=[];perimeter=orthogonalPerimeter;outlineConnect=0;targetShapes=umlLifeline;portConstraint=eastwest;newEdgeStyle={&quot;edgeStyle&quot;:&quot;elbowEdgeStyle&quot;,&quot;elbow&quot;:&quot;vertical&quot;,&quot;curved&quot;:0,&quot;rounded&quot;:0};" parent="7P23fWCcZTtkgC-bO-uN-45" vertex="1">
          <mxGeometry x="45" y="370" width="10" height="80" as="geometry" />
        </mxCell>
        <mxCell id="7P23fWCcZTtkgC-bO-uN-50" value="6. Mensagem de sucesso" style="html=1;verticalAlign=bottom;endArrow=open;dashed=1;endSize=8;edgeStyle=elbowEdgeStyle;elbow=vertical;curved=0;rounded=0;" parent="1" source="7P23fWCcZTtkgC-bO-uN-54" edge="1">
          <mxGeometry relative="1" as="geometry">
            <mxPoint x="442.5" y="348" as="targetPoint" />
            <Array as="points">
              <mxPoint x="562.5" y="348" />
            </Array>
            <mxPoint x="642" y="348" as="sourcePoint" />
          </mxGeometry>
        </mxCell>
        <mxCell id="7P23fWCcZTtkgC-bO-uN-51" value="5. adicionarProduto(produto_id, categoria_id)" style="html=1;verticalAlign=bottom;endArrow=open;endSize=8;edgeStyle=elbowEdgeStyle;elbow=vertical;curved=0;rounded=0;" parent="1" target="7P23fWCcZTtkgC-bO-uN-54" edge="1">
          <mxGeometry relative="1" as="geometry">
            <mxPoint x="642" y="318" as="targetPoint" />
            <Array as="points">
              <mxPoint x="552.5" y="318" />
            </Array>
            <mxPoint x="442.5" y="318" as="sourcePoint" />
          </mxGeometry>
        </mxCell>
        <mxCell id="7P23fWCcZTtkgC-bO-uN-52" value="UsuÃ¡rio&lt;div&gt;&lt;br&gt;&lt;/div&gt;" style="shape=umlActor;verticalLabelPosition=bottom;verticalAlign=top;html=1;outlineConnect=0;" parent="1" vertex="1">
          <mxGeometry x="427" y="18" width="30" height="60" as="geometry" />
        </mxCell>
        <mxCell id="7P23fWCcZTtkgC-bO-uN-53" value="" style="endArrow=none;dashed=1;html=1;rounded=0;" parent="1" edge="1">
          <mxGeometry width="50" height="50" relative="1" as="geometry">
            <mxPoint x="442" y="88" as="sourcePoint" />
            <mxPoint x="442" y="490" as="targetPoint" />
          </mxGeometry>
        </mxCell>
        <mxCell id="7P23fWCcZTtkgC-bO-uN-55" value="1. exibirCardapio" style="html=1;verticalAlign=bottom;endArrow=open;endSize=8;edgeStyle=elbowEdgeStyle;elbow=vertical;curved=0;rounded=0;" parent="1" target="7P23fWCcZTtkgC-bO-uN-46" edge="1">
          <mxGeometry x="0.0025" relative="1" as="geometry">
            <mxPoint x="642" y="128" as="targetPoint" />
            <Array as="points">
              <mxPoint x="552.5" y="128" />
            </Array>
            <mxPoint x="442.5" y="128" as="sourcePoint" />
            <mxPoint as="offset" />
          </mxGeometry>
        </mxCell>
        <mxCell id="7P23fWCcZTtkgC-bO-uN-57" value="3. createCategoria()" style="html=1;verticalAlign=bottom;endArrow=open;endSize=8;edgeStyle=elbowEdgeStyle;elbow=vertical;curved=0;rounded=0;" parent="1" edge="1">
          <mxGeometry relative="1" as="geometry">
            <mxPoint x="665" y="235" as="targetPoint" />
            <Array as="points">
              <mxPoint x="552.5" y="235" />
            </Array>
            <mxPoint x="442.5" y="235" as="sourcePoint" />
          </mxGeometry>
        </mxCell>
        <mxCell id="7P23fWCcZTtkgC-bO-uN-58" value="4. Mensagem de sucesso" style="html=1;verticalAlign=bottom;endArrow=open;dashed=1;endSize=8;edgeStyle=elbowEdgeStyle;elbow=vertical;curved=0;rounded=0;" parent="1" edge="1">
          <mxGeometry relative="1" as="geometry">
            <mxPoint x="442.5" y="258" as="targetPoint" />
            <Array as="points">
              <mxPoint x="562.5" y="258" />
            </Array>
            <mxPoint x="665" y="258" as="sourcePoint" />
          </mxGeometry>
        </mxCell>
        <mxCell id="7P23fWCcZTtkgC-bO-uN-59" value="7. removerProduto(produto_id, categoria_id)" style="html=1;verticalAlign=bottom;endArrow=open;endSize=8;edgeStyle=elbowEdgeStyle;elbow=horizontal;curved=0;rounded=0;" parent="1" target="7P23fWCcZTtkgC-bO-uN-48" edge="1">
          <mxGeometry relative="1" as="geometry">
            <mxPoint x="642" y="408" as="targetPoint" />
            <Array as="points">
              <mxPoint x="552.5" y="408" />
            </Array>
            <mxPoint x="442.5" y="408" as="sourcePoint" />
          </mxGeometry>
        </mxCell>
        <mxCell id="7P23fWCcZTtkgC-bO-uN-60" value="8. Mensagem de sucesso" style="html=1;verticalAlign=bottom;endArrow=open;dashed=1;endSize=8;edgeStyle=elbowEdgeStyle;elbow=vertical;curved=0;rounded=0;" parent="1" source="7P23fWCcZTtkgC-bO-uN-48" edge="1">
          <mxGeometry relative="1" as="geometry">
            <mxPoint x="442.5" y="438" as="targetPoint" />
            <Array as="points">
              <mxPoint x="562.5" y="438" />
            </Array>
            <mxPoint x="642" y="438" as="sourcePoint" />
          </mxGeometry>
        </mxCell>
        <mxCell id="7P23fWCcZTtkgC-bO-uN-63" value="" style="swimlane;startSize=0;" parent="1" vertex="1">
          <mxGeometry x="377" y="178" width="310" height="282" as="geometry" />
        </mxCell>
        <mxCell id="7P23fWCcZTtkgC-bO-uN-64" value="alt" style="text;html=1;align=center;verticalAlign=middle;resizable=0;points=[];autosize=1;perimeterSpacing=1;fillColor=#f5f5f5;fontColor=#333333;strokeColor=#666666;" parent="7P23fWCcZTtkgC-bO-uN-63" vertex="1">
          <mxGeometry x="5" width="40" height="30" as="geometry" />
        </mxCell>
        <mxCell id="7P23fWCcZTtkgC-bO-uN-65" value="Criar&amp;nbsp;&lt;div&gt;categoria&lt;/div&gt;" style="text;html=1;align=center;verticalAlign=middle;resizable=0;points=[];autosize=1;strokeColor=none;fillColor=none;" parent="7P23fWCcZTtkgC-bO-uN-63" vertex="1">
          <mxGeometry x="-3" y="42" width="70" height="40" as="geometry" />
        </mxCell>
        <mxCell id="7P23fWCcZTtkgC-bO-uN-66" value="" style="endArrow=none;html=1;rounded=0;exitX=-0.001;exitY=0.305;exitDx=0;exitDy=0;exitPerimeter=0;entryX=0.995;entryY=0.311;entryDx=0;entryDy=0;entryPerimeter=0;" parent="7P23fWCcZTtkgC-bO-uN-63" edge="1">
          <mxGeometry width="50" height="50" relative="1" as="geometry">
            <mxPoint x="1" y="200" as="sourcePoint" />
            <mxPoint x="309" y="202" as="targetPoint" />
          </mxGeometry>
        </mxCell>
        <mxCell id="7P23fWCcZTtkgC-bO-uN-68" value="Adicionar&lt;div&gt;Produto&lt;/div&gt;" style="text;html=1;align=center;verticalAlign=middle;resizable=0;points=[];autosize=1;strokeColor=none;fillColor=none;" parent="7P23fWCcZTtkgC-bO-uN-63" vertex="1">
          <mxGeometry x="-3" y="135" width="70" height="40" as="geometry" />
        </mxCell>
        <mxCell id="7P23fWCcZTtkgC-bO-uN-69" value="Remover&lt;div&gt;Produto&lt;/div&gt;" style="text;html=1;align=center;verticalAlign=middle;resizable=0;points=[];autosize=1;strokeColor=none;fillColor=none;" parent="7P23fWCcZTtkgC-bO-uN-63" vertex="1">
          <mxGeometry x="-4" y="217" width="70" height="40" as="geometry" />
        </mxCell>
        <mxCell id="7P23fWCcZTtkgC-bO-uN-54" value="" style="html=1;points=[];perimeter=orthogonalPerimeter;outlineConnect=0;targetShapes=umlLifeline;portConstraint=eastwest;newEdgeStyle={&quot;edgeStyle&quot;:&quot;elbowEdgeStyle&quot;,&quot;elbow&quot;:&quot;vertical&quot;,&quot;curved&quot;:0,&quot;rounded&quot;:0};" parent="7P23fWCcZTtkgC-bO-uN-63" vertex="1">
          <mxGeometry x="288" y="120" width="10" height="70" as="geometry" />
        </mxCell>
        <mxCell id="7P23fWCcZTtkgC-bO-uN-71" value="" style="endArrow=none;html=1;rounded=0;exitX=0.008;exitY=0.361;exitDx=0;exitDy=0;exitPerimeter=0;entryX=1.001;entryY=0.358;entryDx=0;entryDy=0;entryPerimeter=0;" parent="1" source="7P23fWCcZTtkgC-bO-uN-63" target="7P23fWCcZTtkgC-bO-uN-63" edge="1">
          <mxGeometry width="50" height="50" relative="1" as="geometry">
            <mxPoint x="382" y="308" as="sourcePoint" />
            <mxPoint x="432" y="258" as="targetPoint" />
          </mxGeometry>
        </mxCell>
        <mxCell id="7P23fWCcZTtkgC-bO-uN-75" value="" style="endArrow=open;html=1;rounded=0;dashed=1;endFill=0;" parent="1" edge="1">
          <mxGeometry width="50" height="50" relative="1" as="geometry">
            <mxPoint x="665" y="153" as="sourcePoint" />
            <mxPoint x="440" y="153" as="targetPoint" />
            <Array as="points">
              <mxPoint x="490" y="153" />
            </Array>
          </mxGeometry>
        </mxCell>
        <mxCell id="7P23fWCcZTtkgC-bO-uN-76" value="2. Cardapio" style="edgeLabel;html=1;align=center;verticalAlign=middle;resizable=0;points=[];" parent="7P23fWCcZTtkgC-bO-uN-75" connectable="0" vertex="1">
          <mxGeometry x="0.0735" y="-2" relative="1" as="geometry">
            <mxPoint x="9" y="-7" as="offset" />
          </mxGeometry>
        </mxCell>
        <mxCell id="7P23fWCcZTtkgC-bO-uN-77" value="Sistema" style="shape=umlLifeline;perimeter=lifelinePerimeter;whiteSpace=wrap;html=1;container=0;dropTarget=0;collapsible=0;recursiveResize=0;outlineConnect=0;portConstraint=eastwest;newEdgeStyle={&quot;edgeStyle&quot;:&quot;elbowEdgeStyle&quot;,&quot;elbow&quot;:&quot;vertical&quot;,&quot;curved&quot;:0,&quot;rounded&quot;:0};" parent="1" vertex="1">
          <mxGeometry x="-609.69" y="30" width="100" height="200" as="geometry" />
        </mxCell>
        <mxCell id="7P23fWCcZTtkgC-bO-uN-78" value="" style="html=1;points=[];perimeter=orthogonalPerimeter;outlineConnect=0;targetShapes=umlLifeline;portConstraint=eastwest;newEdgeStyle={&quot;edgeStyle&quot;:&quot;elbowEdgeStyle&quot;,&quot;elbow&quot;:&quot;vertical&quot;,&quot;curved&quot;:0,&quot;rounded&quot;:0};" parent="7P23fWCcZTtkgC-bO-uN-77" vertex="1">
          <mxGeometry x="45" y="80" width="10" height="70" as="geometry" />
        </mxCell>
        <mxCell id="7P23fWCcZTtkgC-bO-uN-84" value="UsuÃ¡rio&lt;div&gt;&lt;br&gt;&lt;/div&gt;" style="shape=umlActor;verticalLabelPosition=bottom;verticalAlign=top;html=1;outlineConnect=0;" parent="1" vertex="1">
          <mxGeometry x="-779.69" y="30" width="30" height="60" as="geometry" />
        </mxCell>
        <mxCell id="7P23fWCcZTtkgC-bO-uN-85" value="" style="endArrow=none;dashed=1;html=1;rounded=0;" parent="1" edge="1">
          <mxGeometry width="50" height="50" relative="1" as="geometry">
            <mxPoint x="-764.69" y="100" as="sourcePoint" />
            <mxPoint x="-765" y="230" as="targetPoint" />
          </mxGeometry>
        </mxCell>
        <mxCell id="7P23fWCcZTtkgC-bO-uN-87" value="1. visualizarDadosTR(evento)" style="html=1;verticalAlign=bottom;endArrow=open;endSize=8;edgeStyle=elbowEdgeStyle;elbow=horizontal;curved=0;rounded=0;" parent="1" edge="1">
          <mxGeometry x="0.0025" relative="1" as="geometry">
            <mxPoint x="-564.69" y="140" as="targetPoint" />
            <Array as="points">
              <mxPoint x="-654.19" y="140" />
            </Array>
            <mxPoint x="-764.19" y="140" as="sourcePoint" />
            <mxPoint as="offset" />
          </mxGeometry>
        </mxCell>
        <mxCell id="7P23fWCcZTtkgC-bO-uN-88" value="Dados de vendas em tempo real" style="html=1;verticalAlign=bottom;endArrow=open;edgeStyle=elbowEdgeStyle;elbow=vertical;curved=0;rounded=0;dashed=1;endFill=0;" parent="1" edge="1">
          <mxGeometry relative="1" as="geometry">
            <mxPoint x="-564.69" y="170.20000000000005" as="sourcePoint" />
            <Array as="points">
              <mxPoint x="-769.69" y="170" />
            </Array>
            <mxPoint x="-760" y="170" as="targetPoint" />
          </mxGeometry>
        </mxCell>
        <mxCell id="7P23fWCcZTtkgC-bO-uN-104" value="Sistema" style="shape=umlLifeline;perimeter=lifelinePerimeter;whiteSpace=wrap;html=1;container=0;dropTarget=0;collapsible=0;recursiveResize=0;outlineConnect=0;portConstraint=eastwest;newEdgeStyle={&quot;edgeStyle&quot;:&quot;elbowEdgeStyle&quot;,&quot;elbow&quot;:&quot;vertical&quot;,&quot;curved&quot;:0,&quot;rounded&quot;:0};" parent="1" vertex="1">
          <mxGeometry x="-180" y="28" width="100" height="542" as="geometry" />
        </mxCell>
        <mxCell id="7P23fWCcZTtkgC-bO-uN-105" value="" style="html=1;points=[];perimeter=orthogonalPerimeter;outlineConnect=0;targetShapes=umlLifeline;portConstraint=eastwest;newEdgeStyle={&quot;edgeStyle&quot;:&quot;elbowEdgeStyle&quot;,&quot;elbow&quot;:&quot;vertical&quot;,&quot;curved&quot;:0,&quot;rounded&quot;:0};" parent="7P23fWCcZTtkgC-bO-uN-104" vertex="1">
          <mxGeometry x="45" y="80" width="10" height="70" as="geometry" />
        </mxCell>
        <mxCell id="7P23fWCcZTtkgC-bO-uN-106" value="" style="html=1;points=[];perimeter=orthogonalPerimeter;outlineConnect=0;targetShapes=umlLifeline;portConstraint=eastwest;newEdgeStyle={&quot;edgeStyle&quot;:&quot;elbowEdgeStyle&quot;,&quot;elbow&quot;:&quot;vertical&quot;,&quot;curved&quot;:0,&quot;rounded&quot;:0};" parent="7P23fWCcZTtkgC-bO-uN-104" vertex="1">
          <mxGeometry x="45" y="210" width="10" height="40" as="geometry" />
        </mxCell>
        <mxCell id="7P23fWCcZTtkgC-bO-uN-107" value="" style="html=1;points=[];perimeter=orthogonalPerimeter;outlineConnect=0;targetShapes=umlLifeline;portConstraint=eastwest;newEdgeStyle={&quot;edgeStyle&quot;:&quot;elbowEdgeStyle&quot;,&quot;elbow&quot;:&quot;vertical&quot;,&quot;curved&quot;:0,&quot;rounded&quot;:0};" parent="7P23fWCcZTtkgC-bO-uN-104" vertex="1">
          <mxGeometry x="45" y="370" width="10" height="80" as="geometry" />
        </mxCell>
        <mxCell id="7P23fWCcZTtkgC-bO-uN-108" value="6. Detalhes da promoÃ§Ã£o" style="html=1;verticalAlign=bottom;endArrow=open;dashed=1;endSize=8;edgeStyle=elbowEdgeStyle;elbow=vertical;curved=0;rounded=0;" parent="1" source="7P23fWCcZTtkgC-bO-uN-123" edge="1">
          <mxGeometry relative="1" as="geometry">
            <mxPoint x="-357.5" y="358" as="targetPoint" />
            <Array as="points">
              <mxPoint x="-237.5" y="358" />
            </Array>
            <mxPoint x="-158" y="358" as="sourcePoint" />
          </mxGeometry>
        </mxCell>
        <mxCell id="7P23fWCcZTtkgC-bO-uN-109" value="5. showPromocao(id)" style="html=1;verticalAlign=bottom;endArrow=open;endSize=8;edgeStyle=elbowEdgeStyle;elbow=vertical;curved=0;rounded=0;" parent="1" target="7P23fWCcZTtkgC-bO-uN-123" edge="1">
          <mxGeometry relative="1" as="geometry">
            <mxPoint x="-158" y="328" as="targetPoint" />
            <Array as="points">
              <mxPoint x="-247.5" y="328" />
            </Array>
            <mxPoint x="-357.5" y="328" as="sourcePoint" />
          </mxGeometry>
        </mxCell>
        <mxCell id="7P23fWCcZTtkgC-bO-uN-110" value="UsuÃ¡rio&lt;div&gt;&lt;br&gt;&lt;/div&gt;" style="shape=umlActor;verticalLabelPosition=bottom;verticalAlign=top;html=1;outlineConnect=0;" parent="1" vertex="1">
          <mxGeometry x="-373" y="28" width="30" height="60" as="geometry" />
        </mxCell>
        <mxCell id="7P23fWCcZTtkgC-bO-uN-111" value="" style="endArrow=none;dashed=1;html=1;rounded=0;entryX=0.202;entryY=1.001;entryDx=0;entryDy=0;entryPerimeter=0;" parent="1" target="7P23fWCcZTtkgC-bO-uN-117" edge="1">
          <mxGeometry width="50" height="50" relative="1" as="geometry">
            <mxPoint x="-358" y="98" as="sourcePoint" />
            <mxPoint x="-358" y="500" as="targetPoint" />
          </mxGeometry>
        </mxCell>
        <mxCell id="7P23fWCcZTtkgC-bO-uN-112" value="1. exibirPromoÃ§Ãµes" style="html=1;verticalAlign=bottom;endArrow=open;endSize=8;edgeStyle=elbowEdgeStyle;elbow=vertical;curved=0;rounded=0;" parent="1" target="7P23fWCcZTtkgC-bO-uN-105" edge="1">
          <mxGeometry x="0.0037" relative="1" as="geometry">
            <mxPoint x="-158" y="138" as="targetPoint" />
            <Array as="points">
              <mxPoint x="-247.5" y="138" />
            </Array>
            <mxPoint x="-357.5" y="138" as="sourcePoint" />
            <mxPoint as="offset" />
          </mxGeometry>
        </mxCell>
        <mxCell id="7P23fWCcZTtkgC-bO-uN-113" value="3. criarPromocao()" style="html=1;verticalAlign=bottom;endArrow=open;endSize=8;edgeStyle=elbowEdgeStyle;elbow=vertical;curved=0;rounded=0;" parent="1" edge="1">
          <mxGeometry x="0.0037" relative="1" as="geometry">
            <mxPoint x="-135" y="245" as="targetPoint" />
            <Array as="points">
              <mxPoint x="-247.5" y="245" />
            </Array>
            <mxPoint x="-357.5" y="245" as="sourcePoint" />
            <mxPoint as="offset" />
          </mxGeometry>
        </mxCell>
        <mxCell id="7P23fWCcZTtkgC-bO-uN-114" value="4. Mensagem de sucesso" style="html=1;verticalAlign=bottom;endArrow=open;dashed=1;endSize=8;edgeStyle=elbowEdgeStyle;elbow=vertical;curved=0;rounded=0;" parent="1" edge="1">
          <mxGeometry relative="1" as="geometry">
            <mxPoint x="-357.5" y="268" as="targetPoint" />
            <Array as="points">
              <mxPoint x="-237.5" y="268" />
            </Array>
            <mxPoint x="-135" y="268" as="sourcePoint" />
          </mxGeometry>
        </mxCell>
        <mxCell id="7P23fWCcZTtkgC-bO-uN-115" value="7. updatePromocao(id)" style="html=1;verticalAlign=bottom;endArrow=open;endSize=8;edgeStyle=elbowEdgeStyle;elbow=horizontal;curved=0;rounded=0;" parent="1" target="7P23fWCcZTtkgC-bO-uN-107" edge="1">
          <mxGeometry relative="1" as="geometry">
            <mxPoint x="-158" y="418" as="targetPoint" />
            <Array as="points">
              <mxPoint x="-247.5" y="418" />
            </Array>
            <mxPoint x="-357.5" y="418" as="sourcePoint" />
          </mxGeometry>
        </mxCell>
        <mxCell id="7P23fWCcZTtkgC-bO-uN-116" value="8. Mensagem de sucesso" style="html=1;verticalAlign=bottom;endArrow=open;dashed=1;endSize=8;edgeStyle=elbowEdgeStyle;elbow=vertical;curved=0;rounded=0;" parent="1" source="7P23fWCcZTtkgC-bO-uN-107" edge="1">
          <mxGeometry relative="1" as="geometry">
            <mxPoint x="-357.5" y="448" as="targetPoint" />
            <Array as="points">
              <mxPoint x="-237.5" y="448" />
            </Array>
            <mxPoint x="-158" y="448" as="sourcePoint" />
          </mxGeometry>
        </mxCell>
        <mxCell id="7P23fWCcZTtkgC-bO-uN-117" value="" style="swimlane;startSize=0;" parent="1" vertex="1">
          <mxGeometry x="-423" y="188" width="310" height="382" as="geometry" />
        </mxCell>
        <mxCell id="7P23fWCcZTtkgC-bO-uN-118" value="alt" style="text;html=1;align=center;verticalAlign=middle;resizable=0;points=[];autosize=1;perimeterSpacing=1;fillColor=#f5f5f5;fontColor=#333333;strokeColor=#666666;" parent="7P23fWCcZTtkgC-bO-uN-117" vertex="1">
          <mxGeometry x="5" width="40" height="30" as="geometry" />
        </mxCell>
        <mxCell id="7P23fWCcZTtkgC-bO-uN-119" value="Criar&amp;nbsp;" style="text;html=1;align=center;verticalAlign=middle;resizable=0;points=[];autosize=1;strokeColor=none;fillColor=none;" parent="7P23fWCcZTtkgC-bO-uN-117" vertex="1">
          <mxGeometry x="7" y="47" width="50" height="30" as="geometry" />
        </mxCell>
        <mxCell id="7P23fWCcZTtkgC-bO-uN-120" value="" style="endArrow=none;html=1;rounded=0;exitX=-0.001;exitY=0.305;exitDx=0;exitDy=0;exitPerimeter=0;entryX=0.995;entryY=0.311;entryDx=0;entryDy=0;entryPerimeter=0;" parent="7P23fWCcZTtkgC-bO-uN-117" edge="1">
          <mxGeometry width="50" height="50" relative="1" as="geometry">
            <mxPoint x="1" y="200" as="sourcePoint" />
            <mxPoint x="309" y="202" as="targetPoint" />
          </mxGeometry>
        </mxCell>
        <mxCell id="7P23fWCcZTtkgC-bO-uN-121" value="Exibir" style="text;html=1;align=center;verticalAlign=middle;resizable=0;points=[];autosize=1;strokeColor=none;fillColor=none;" parent="7P23fWCcZTtkgC-bO-uN-117" vertex="1">
          <mxGeometry x="7" y="140" width="50" height="30" as="geometry" />
        </mxCell>
        <mxCell id="7P23fWCcZTtkgC-bO-uN-122" value="Atualizar" style="text;html=1;align=center;verticalAlign=middle;resizable=0;points=[];autosize=1;strokeColor=none;fillColor=none;" parent="7P23fWCcZTtkgC-bO-uN-117" vertex="1">
          <mxGeometry x="-4" y="222" width="70" height="30" as="geometry" />
        </mxCell>
        <mxCell id="7P23fWCcZTtkgC-bO-uN-123" value="" style="html=1;points=[];perimeter=orthogonalPerimeter;outlineConnect=0;targetShapes=umlLifeline;portConstraint=eastwest;newEdgeStyle={&quot;edgeStyle&quot;:&quot;elbowEdgeStyle&quot;,&quot;elbow&quot;:&quot;vertical&quot;,&quot;curved&quot;:0,&quot;rounded&quot;:0};" parent="7P23fWCcZTtkgC-bO-uN-117" vertex="1">
          <mxGeometry x="288" y="120" width="10" height="70" as="geometry" />
        </mxCell>
        <mxCell id="7P23fWCcZTtkgC-bO-uN-124" value="" style="endArrow=none;html=1;rounded=0;exitX=0.008;exitY=0.361;exitDx=0;exitDy=0;exitPerimeter=0;entryX=1.001;entryY=0.358;entryDx=0;entryDy=0;entryPerimeter=0;" parent="7P23fWCcZTtkgC-bO-uN-117" edge="1">
          <mxGeometry width="50" height="50" relative="1" as="geometry">
            <mxPoint y="103.14199999999994" as="sourcePoint" />
            <mxPoint x="307.8299999999999" y="101.99599999999998" as="targetPoint" />
          </mxGeometry>
        </mxCell>
        <mxCell id="7P23fWCcZTtkgC-bO-uN-127" value="" style="endArrow=none;html=1;rounded=0;exitX=-0.001;exitY=0.305;exitDx=0;exitDy=0;exitPerimeter=0;entryX=0.995;entryY=0.311;entryDx=0;entryDy=0;entryPerimeter=0;" parent="7P23fWCcZTtkgC-bO-uN-117" edge="1">
          <mxGeometry width="50" height="50" relative="1" as="geometry">
            <mxPoint x="1" y="302" as="sourcePoint" />
            <mxPoint x="309" y="304" as="targetPoint" />
          </mxGeometry>
        </mxCell>
        <mxCell id="7P23fWCcZTtkgC-bO-uN-129" value="9. deletarPromocao(id)" style="html=1;verticalAlign=bottom;endArrow=open;endSize=8;edgeStyle=elbowEdgeStyle;elbow=vertical;curved=0;rounded=0;" parent="7P23fWCcZTtkgC-bO-uN-117" edge="1">
          <mxGeometry relative="1" as="geometry">
            <mxPoint x="288" y="331.58" as="targetPoint" />
            <Array as="points">
              <mxPoint x="167" y="331.58" />
            </Array>
            <mxPoint x="63" y="331.58" as="sourcePoint" />
          </mxGeometry>
        </mxCell>
        <mxCell id="7P23fWCcZTtkgC-bO-uN-130" value="" style="html=1;points=[];perimeter=orthogonalPerimeter;outlineConnect=0;targetShapes=umlLifeline;portConstraint=eastwest;newEdgeStyle={&quot;edgeStyle&quot;:&quot;elbowEdgeStyle&quot;,&quot;elbow&quot;:&quot;vertical&quot;,&quot;curved&quot;:0,&quot;rounded&quot;:0};" parent="7P23fWCcZTtkgC-bO-uN-117" vertex="1">
          <mxGeometry x="288" y="312" width="10" height="48" as="geometry" />
        </mxCell>
        <mxCell id="7P23fWCcZTtkgC-bO-uN-131" value="De&lt;span style=&quot;background-color: initial;&quot;&gt;letar&lt;/span&gt;" style="text;html=1;align=center;verticalAlign=middle;resizable=0;points=[];autosize=1;strokeColor=none;fillColor=none;" parent="7P23fWCcZTtkgC-bO-uN-117" vertex="1">
          <mxGeometry x="1" y="322" width="60" height="30" as="geometry" />
        </mxCell>
        <mxCell id="7P23fWCcZTtkgC-bO-uN-132" value="10. Mensagem de sucesso" style="html=1;verticalAlign=bottom;endArrow=open;dashed=1;endSize=8;edgeStyle=elbowEdgeStyle;elbow=vertical;curved=0;rounded=0;" parent="7P23fWCcZTtkgC-bO-uN-117" edge="1">
          <mxGeometry relative="1" as="geometry">
            <mxPoint x="65.5" y="353.05" as="targetPoint" />
            <Array as="points">
              <mxPoint x="185.5" y="353.05" />
            </Array>
            <mxPoint x="288" y="353.05" as="sourcePoint" />
          </mxGeometry>
        </mxCell>
        <mxCell id="7P23fWCcZTtkgC-bO-uN-125" value="" style="endArrow=open;html=1;rounded=0;dashed=1;endFill=0;" parent="1" edge="1">
          <mxGeometry width="50" height="50" relative="1" as="geometry">
            <mxPoint x="-135" y="163" as="sourcePoint" />
            <mxPoint x="-360" y="163" as="targetPoint" />
            <Array as="points">
              <mxPoint x="-310" y="163" />
            </Array>
          </mxGeometry>
        </mxCell>
        <mxCell id="7P23fWCcZTtkgC-bO-uN-126" value="2. PromoÃ§Ãµes existentes" style="edgeLabel;html=1;align=center;verticalAlign=middle;resizable=0;points=[];" parent="7P23fWCcZTtkgC-bO-uN-125" connectable="0" vertex="1">
          <mxGeometry x="0.0735" y="-2" relative="1" as="geometry">
            <mxPoint x="9" y="-7" as="offset" />
          </mxGeometry>
        </mxCell>
        <mxCell id="7P23fWCcZTtkgC-bO-uN-133" value="Sistema" style="shape=umlLifeline;perimeter=lifelinePerimeter;whiteSpace=wrap;html=1;container=0;dropTarget=0;collapsible=0;recursiveResize=0;outlineConnect=0;portConstraint=eastwest;newEdgeStyle={&quot;edgeStyle&quot;:&quot;elbowEdgeStyle&quot;,&quot;elbow&quot;:&quot;vertical&quot;,&quot;curved&quot;:0,&quot;rounded&quot;:0};" parent="1" vertex="1">
          <mxGeometry x="-609.69" y="372" width="100" height="200" as="geometry" />
        </mxCell>
        <mxCell id="7P23fWCcZTtkgC-bO-uN-134" value="" style="html=1;points=[];perimeter=orthogonalPerimeter;outlineConnect=0;targetShapes=umlLifeline;portConstraint=eastwest;newEdgeStyle={&quot;edgeStyle&quot;:&quot;elbowEdgeStyle&quot;,&quot;elbow&quot;:&quot;vertical&quot;,&quot;curved&quot;:0,&quot;rounded&quot;:0};" parent="7P23fWCcZTtkgC-bO-uN-133" vertex="1">
          <mxGeometry x="45" y="80" width="10" height="70" as="geometry" />
        </mxCell>
        <mxCell id="7P23fWCcZTtkgC-bO-uN-135" value="UsuÃ¡rio&lt;div&gt;&lt;br&gt;&lt;/div&gt;" style="shape=umlActor;verticalLabelPosition=bottom;verticalAlign=top;html=1;outlineConnect=0;" parent="1" vertex="1">
          <mxGeometry x="-779.69" y="372" width="30" height="60" as="geometry" />
        </mxCell>
        <mxCell id="7P23fWCcZTtkgC-bO-uN-136" value="" style="endArrow=none;dashed=1;html=1;rounded=0;" parent="1" edge="1">
          <mxGeometry width="50" height="50" relative="1" as="geometry">
            <mxPoint x="-764.69" y="442" as="sourcePoint" />
            <mxPoint x="-765" y="572" as="targetPoint" />
          </mxGeometry>
        </mxCell>
        <mxCell id="7P23fWCcZTtkgC-bO-uN-137" value="1. visualizarRelatorios(evento)" style="html=1;verticalAlign=bottom;endArrow=open;endSize=8;edgeStyle=elbowEdgeStyle;elbow=horizontal;curved=0;rounded=0;" parent="1" edge="1">
          <mxGeometry x="0.0025" relative="1" as="geometry">
            <mxPoint x="-564.69" y="482" as="targetPoint" />
            <Array as="points">
              <mxPoint x="-654.19" y="482" />
            </Array>
            <mxPoint x="-764.19" y="482" as="sourcePoint" />
            <mxPoint as="offset" />
          </mxGeometry>
        </mxCell>
        <mxCell id="7P23fWCcZTtkgC-bO-uN-138" value="RelÃ¡torios de vendas do evento" style="html=1;verticalAlign=bottom;endArrow=open;edgeStyle=elbowEdgeStyle;elbow=vertical;curved=0;rounded=0;dashed=1;endFill=0;" parent="1" edge="1">
          <mxGeometry relative="1" as="geometry">
            <mxPoint x="-564.69" y="512.2" as="sourcePoint" />
            <Array as="points">
              <mxPoint x="-769.69" y="512" />
            </Array>
            <mxPoint x="-760" y="512" as="targetPoint" />
          </mxGeometry>
        </mxCell>
      </root>
    </mxGraphModel>
  </diagram>
</mxfile>
